<?xml version="1.0" standalone="no"?>
<!DOCTYPE svg PUBLIC "-//W3C//DTD SVG 20010904//EN"
 "http://www.w3.org/TR/2001/REC-SVG-20010904/DTD/svg10.dtd">
<svg version="1.0" xmlns="http://www.w3.org/2000/svg"
 width="700.000000pt" height="700.000000pt" viewBox="0 0 700.000000 700.000000"
 preserveAspectRatio="xMidYMid meet">
<metadata>
Created by potrace 1.14, written by Peter Selinger 2001-2017
</metadata>
<g transform="translate(0.000000,700.000000) scale(0.100000,-0.100000)"
fill="#000000" stroke="none">
<path d="M125 6986 c-82 -36 -132 -117 -122 -198 11 -82 48 -131 127 -166 25
-11 65 -29 90 -40 25 -11 232 -100 460 -197 228 -97 426 -183 440 -190 l25
-13 0 -1466 0 -1466 -80 -32 c-105 -41 -248 -116 -327 -170 -198 -136 -365
-311 -506 -533 -57 -90 -145 -302 -177 -425 -19 -71 -19 -75 -30 -140 -4 -25
-10 -54 -12 -65 -3 -11 -6 -99 -8 -197 -2 -205 18 -352 74 -523 130 -404 407
-745 770 -948 258 -145 504 -210 796 -211 170 -1 250 6 376 34 513 112 948
466 1167 950 57 126 115 333 128 455 4 33 8 67 10 75 1 8 3 27 3 42 l1 27 700
0 c546 1 700 -2 701 -12 1 -6 2 -66 3 -132 l1 -120 -53 -22 c-130 -52 -263
-164 -330 -276 -36 -60 -80 -175 -89 -235 -8 -54 -7 -179 1 -237 19 -120 93
-260 189 -355 140 -139 301 -201 502 -195 125 4 195 25 340 102 52 28 188 174
223 240 163 309 86 664 -189 871 -49 37 -174 102 -196 102 -5 0 -9 120 -9 279
l0 280 162 -1 162 -1 12 -26 c15 -31 380 -854 487 -1096 41 -93 84 -182 94
-197 11 -14 40 -37 67 -50 47 -23 49 -23 397 -23 317 1 353 3 384 19 72 38
111 104 107 184 -2 58 -28 104 -79 146 l-39 31 -280 5 -280 5 -60 135 c-33 74
-118 268 -190 430 -72 162 -138 313 -148 335 -10 22 -46 103 -80 180 -89 204
-101 227 -130 253 -57 54 -67 55 -335 56 l-250 1 0 1315 c-1 1040 -4 1326 -14
1370 -19 80 -84 207 -138 268 -49 56 -142 127 -205 156 -21 9 -72 25 -114 36
-74 19 -122 20 -1572 20 -824 0 -1509 0 -1523 0 l-26 0 0 463 c0 508 1 501
-62 561 -18 17 -239 117 -622 282 -623 268 -656 280 -724 250z m4450 -1957
c57 -16 115 -65 138 -118 18 -41 20 -68 21 -239 1 -121 -3 -192 -9 -193 -5 -1
-723 -2 -1593 -3 -1046 -1 -1586 2 -1592 9 -4 6 -7 133 -7 283 l0 272 1501 0
c1069 0 1513 -3 1541 -11z"/>
</g>
</svg>
