<?xml version="1.0" encoding="UTF-8"?>
<svg xmlns="http://www.w3.org/2000/svg" xmlns:xlink="http://www.w3.org/1999/xlink" width="48px" height="48px" viewBox="0 0 48 48" version="1.1">
<g id="surface1">
<path style=" stroke:none;fill-rule:nonzero;fill:rgb(83.137255%,71.764706%,51.372549%);fill-opacity:1;" d="M 39.671875 23.519531 C 38.773438 23.9375 37.792969 24.152344 36.789062 24.152344 C 35.589844 24.152344 34.410156 23.835938 33.367188 23.234375 C 31.421875 22.113281 30.171875 20.105469 29.96875 17.914062 C 27.765625 17.710938 25.765625 16.449219 24.648438 14.515625 C 23.527344 12.570312 23.445312 10.210938 24.367188 8.210938 C 22.957031 7.21875 21.972656 5.738281 21.613281 4.050781 C 16.8125 4.203125 12.40625 5.9375 8.890625 8.746094 C 9.8125 9.636719 10.355469 10.878906 10.355469 12.214844 C 10.355469 13.925781 9.460938 15.429688 8.117188 16.289062 C 7.367188 16.769531 6.476562 17.050781 5.523438 17.050781 C 4.851562 17.050781 4.195312 16.910156 3.589844 16.648438 C 3.589844 16.648438 3.585938 16.652344 3.582031 16.65625 C 3.355469 17.28125 3.160156 17.921875 2.992188 18.574219 C 2.542969 20.308594 2.300781 22.125 2.300781 24 C 2.300781 35.964844 12.035156 45.699219 24 45.699219 C 28.730469 45.699219 33.113281 44.171875 36.683594 41.59375 C 36.757812 41.523438 36.855469 41.453125 36.96875 41.378906 C 38.304688 40.378906 39.527344 39.230469 40.601562 37.957031 C 39.355469 37.066406 38.566406 35.609375 38.566406 34.019531 C 38.566406 32.96875 38.90625 31.992188 39.480469 31.199219 C 40.324219 30.027344 41.679688 29.25 43.214844 29.191406 C 43.277344 29.1875 43.335938 29.1875 43.402344 29.1875 C 43.449219 29.1875 43.496094 29.1875 43.539062 29.1875 C 43.703125 28.238281 43.800781 27.261719 43.835938 26.273438 C 42.148438 25.914062 40.664062 24.929688 39.671875 23.519531 Z M 15.246094 38.546875 C 13.738281 38.546875 12.390625 37.855469 11.503906 36.769531 C 10.785156 35.925781 10.355469 34.835938 10.355469 33.644531 C 10.355469 30.980469 12.523438 28.8125 15.1875 28.8125 C 16.695312 28.8125 18.042969 29.503906 18.929688 30.589844 C 19.644531 31.433594 20.078125 32.523438 20.078125 33.710938 C 20.078125 36.378906 17.910156 38.546875 15.246094 38.546875 Z M 18.441406 21.144531 C 16.933594 21.144531 15.585938 20.449219 14.699219 19.367188 C 13.980469 18.523438 13.550781 17.433594 13.550781 16.242188 C 13.550781 13.578125 15.71875 11.410156 18.382812 11.410156 C 19.890625 11.410156 21.238281 12.101562 22.125 13.1875 C 22.839844 14.03125 23.273438 15.121094 23.273438 16.308594 C 23.273438 18.976562 21.105469 21.144531 18.441406 21.144531 Z M 28.429688 36.242188 C 26.492188 36.242188 24.761719 35.351562 23.621094 33.960938 C 22.707031 32.878906 22.15625 31.480469 22.15625 29.957031 C 22.15625 26.53125 24.945312 23.742188 28.371094 23.742188 C 30.308594 23.742188 32.039062 24.632812 33.179688 26.023438 C 34.09375 27.105469 34.644531 28.5 34.644531 30.023438 C 34.644531 33.453125 31.855469 36.242188 28.429688 36.242188 Z M 28.429688 36.242188 "/>
<path style=" stroke:none;fill-rule:nonzero;fill:rgb(53.72549%,38.823529%,29.019608%);fill-opacity:1;" d="M 18.382812 18.777344 C 19.78125 18.777344 20.917969 17.640625 20.917969 16.242188 C 20.917969 14.847656 19.78125 13.710938 18.382812 13.710938 C 16.988281 13.710938 15.851562 14.847656 15.851562 16.242188 C 15.851562 17.640625 16.988281 18.777344 18.382812 18.777344 Z M 18.382812 18.777344 "/>
<path style=" stroke:none;fill-rule:nonzero;fill:rgb(53.72549%,38.823529%,29.019608%);fill-opacity:1;" d="M 15.1875 36.179688 C 16.585938 36.179688 17.722656 35.042969 17.722656 33.644531 C 17.722656 32.25 16.585938 31.113281 15.1875 31.113281 C 13.792969 31.113281 12.65625 32.25 12.65625 33.644531 C 12.65625 35.042969 13.792969 36.179688 15.1875 36.179688 Z M 15.1875 36.179688 "/>
<path style=" stroke:none;fill-rule:nonzero;fill:rgb(53.72549%,38.823529%,29.019608%);fill-opacity:1;" d="M 8.054688 12.214844 C 8.054688 11.464844 7.726562 10.777344 7.183594 10.304688 C 6.128906 11.59375 5.222656 13.011719 4.484375 14.523438 C 4.808594 14.667969 5.160156 14.746094 5.523438 14.746094 C 6.917969 14.746094 8.054688 13.609375 8.054688 12.214844 Z M 8.054688 12.214844 "/>
<path style=" stroke:none;fill-rule:nonzero;fill:rgb(53.72549%,38.823529%,29.019608%);fill-opacity:1;" d="M 40.871094 34.019531 C 40.871094 34.875 41.304688 35.65625 41.988281 36.121094 C 42.921875 34.734375 43.703125 33.238281 44.300781 31.652344 C 44.019531 31.546875 43.714844 31.488281 43.402344 31.488281 C 42.003906 31.488281 40.871094 32.625 40.871094 34.019531 Z M 40.871094 34.019531 "/>
<path style=" stroke:none;fill-rule:nonzero;fill:rgb(53.72549%,38.823529%,29.019608%);fill-opacity:1;" d="M 28.371094 33.871094 C 30.53125 33.871094 32.285156 32.117188 32.285156 29.957031 C 32.285156 27.800781 30.53125 26.042969 28.371094 26.042969 C 26.214844 26.042969 24.457031 27.800781 24.457031 29.957031 C 24.457031 32.117188 26.214844 33.871094 28.371094 33.871094 Z M 28.371094 33.871094 "/>
<path style=" stroke:none;fill-rule:nonzero;fill:rgb(53.72549%,38.823529%,29.019608%);fill-opacity:1;" d="M 22.125 13.1875 C 22.808594 14.019531 23.21875 15.085938 23.21875 16.242188 C 23.21875 18.910156 21.050781 21.078125 18.382812 21.078125 C 16.90625 21.078125 15.585938 20.414062 14.699219 19.367188 C 15.585938 20.449219 16.933594 21.144531 18.441406 21.144531 C 21.105469 21.144531 23.273438 18.976562 23.273438 16.308594 C 23.273438 15.121094 22.84375 14.03125 22.125 13.1875 Z M 22.125 13.1875 "/>
<path style=" stroke:none;fill-rule:nonzero;fill:rgb(53.72549%,38.823529%,29.019608%);fill-opacity:1;" d="M 20.023438 33.644531 C 20.023438 36.3125 17.855469 38.480469 15.1875 38.480469 C 13.710938 38.480469 12.390625 37.816406 11.503906 36.769531 C 12.390625 37.855469 13.738281 38.546875 15.246094 38.546875 C 17.910156 38.546875 20.078125 36.378906 20.078125 33.710938 C 20.078125 32.523438 19.644531 31.433594 18.929688 30.589844 C 19.613281 31.421875 20.023438 32.488281 20.023438 33.644531 Z M 20.023438 33.644531 "/>
<path style=" stroke:none;fill-rule:nonzero;fill:rgb(53.72549%,38.823529%,29.019608%);fill-opacity:1;" d="M 34.585938 29.957031 C 34.585938 33.386719 31.800781 36.175781 28.371094 36.175781 C 26.46875 36.175781 24.761719 35.3125 23.621094 33.960938 C 24.761719 35.351562 26.492188 36.242188 28.429688 36.242188 C 31.855469 36.242188 34.644531 33.453125 34.644531 30.023438 C 34.644531 28.5 34.09375 27.105469 33.179688 26.023438 C 34.058594 27.097656 34.585938 28.464844 34.585938 29.957031 Z M 34.585938 29.957031 "/>
<path style=" stroke:none;fill-rule:nonzero;fill:rgb(0%,0%,0%);fill-opacity:1;" d="M 18.382812 21.078125 C 21.050781 21.078125 23.21875 18.910156 23.21875 16.242188 C 23.21875 15.085938 22.808594 14.019531 22.125 13.1875 C 21.238281 12.101562 19.890625 11.410156 18.382812 11.410156 C 15.71875 11.410156 13.550781 13.578125 13.550781 16.242188 C 13.550781 17.433594 13.980469 18.523438 14.699219 19.367188 C 15.585938 20.414062 16.90625 21.078125 18.382812 21.078125 Z M 18.382812 13.710938 C 19.78125 13.710938 20.917969 14.847656 20.917969 16.242188 C 20.917969 17.640625 19.78125 18.777344 18.382812 18.777344 C 16.988281 18.777344 15.851562 17.640625 15.851562 16.242188 C 15.851562 14.847656 16.988281 13.710938 18.382812 13.710938 Z M 18.382812 13.710938 "/>
<path style=" stroke:none;fill-rule:nonzero;fill:rgb(0%,0%,0%);fill-opacity:1;" d="M 15.1875 38.480469 C 17.855469 38.480469 20.023438 36.3125 20.023438 33.644531 C 20.023438 32.488281 19.613281 31.421875 18.929688 30.589844 C 18.042969 29.503906 16.695312 28.8125 15.1875 28.8125 C 12.523438 28.8125 10.355469 30.980469 10.355469 33.644531 C 10.355469 34.835938 10.785156 35.925781 11.503906 36.769531 C 12.390625 37.816406 13.710938 38.480469 15.1875 38.480469 Z M 15.1875 31.113281 C 16.585938 31.113281 17.722656 32.25 17.722656 33.644531 C 17.722656 35.042969 16.585938 36.179688 15.1875 36.179688 C 13.792969 36.179688 12.65625 35.042969 12.65625 33.644531 C 12.65625 32.25 13.792969 31.113281 15.1875 31.113281 Z M 15.1875 31.113281 "/>
<path style=" stroke:none;fill-rule:nonzero;fill:rgb(0%,0%,0%);fill-opacity:1;" d="M 47.996094 23.78125 L 47.996094 23.6875 C 47.988281 23.078125 47.511719 22.582031 46.902344 22.550781 C 45.191406 22.464844 43.679688 21.441406 42.957031 19.878906 C 42.816406 19.570312 42.542969 19.339844 42.210938 19.25 C 41.882812 19.164062 41.527344 19.226562 41.25 19.421875 C 40.476562 19.96875 39.53125 20.265625 38.585938 20.265625 C 37.785156 20.265625 36.992188 20.054688 36.289062 19.648438 C 34.742188 18.753906 33.84375 17.023438 34.007812 15.242188 C 34.039062 14.902344 33.917969 14.5625 33.675781 14.324219 C 33.433594 14.082031 33.097656 13.960938 32.757812 13.992188 C 32.621094 14.003906 32.480469 14.007812 32.339844 14.007812 C 30.699219 14.007812 29.167969 13.128906 28.347656 11.707031 C 27.453125 10.160156 27.542969 8.210938 28.578125 6.746094 C 28.773438 6.46875 28.835938 6.117188 28.746094 5.785156 C 28.660156 5.457031 28.429688 5.183594 28.117188 5.039062 C 26.558594 4.320312 25.535156 2.808594 25.449219 1.097656 C 25.417969 0.488281 24.921875 0.0117188 24.316406 0.00390625 L 24.222656 0.00390625 C 24.148438 0 24.074219 0 24 0 C 10.765625 0 0 10.765625 0 24 C 0 37.234375 10.765625 48 24 48 C 37.234375 48 48 37.234375 48 24 C 48 23.925781 48 23.855469 47.996094 23.78125 Z M 7.183594 10.304688 C 7.726562 10.777344 8.054688 11.464844 8.054688 12.214844 C 8.054688 13.609375 6.917969 14.746094 5.523438 14.746094 C 5.160156 14.746094 4.808594 14.667969 4.484375 14.523438 C 5.222656 13.011719 6.128906 11.59375 7.183594 10.304688 Z M 41.988281 36.121094 C 41.304688 35.65625 40.871094 34.875 40.871094 34.019531 C 40.871094 32.625 42.003906 31.488281 43.402344 31.488281 C 43.714844 31.488281 44.019531 31.546875 44.300781 31.65625 C 43.703125 33.238281 42.921875 34.734375 41.988281 36.121094 Z M 45.003906 29.460938 C 44.535156 29.296875 44.039062 29.203125 43.539062 29.1875 C 43.496094 29.1875 43.449219 29.1875 43.402344 29.1875 C 43.339844 29.1875 43.277344 29.1875 43.214844 29.191406 C 41.679688 29.25 40.324219 30.027344 39.480469 31.195312 C 38.90625 31.992188 38.566406 32.96875 38.566406 34.019531 C 38.566406 35.609375 39.355469 37.066406 40.601562 37.957031 C 39.527344 39.230469 38.304688 40.378906 36.96875 41.378906 C 36.875 41.449219 36.78125 41.523438 36.683594 41.59375 C 33.113281 44.171875 28.730469 45.699219 24 45.699219 C 12.035156 45.699219 2.300781 35.964844 2.300781 24 C 2.300781 22.125 2.542969 20.308594 2.992188 18.574219 C 3.160156 17.921875 3.355469 17.28125 3.582031 16.65625 C 3.582031 16.652344 3.585938 16.648438 3.585938 16.644531 C 3.585938 16.644531 3.589844 16.644531 3.589844 16.644531 C 4.195312 16.910156 4.851562 17.050781 5.523438 17.050781 C 6.476562 17.050781 7.367188 16.769531 8.117188 16.289062 C 9.460938 15.429688 10.355469 13.925781 10.355469 12.214844 C 10.355469 10.878906 9.8125 9.636719 8.890625 8.746094 C 8.839844 8.695312 8.789062 8.644531 8.734375 8.597656 C 12.5 4.863281 17.625 2.496094 23.296875 2.3125 C 23.660156 4.011719 24.648438 5.507812 26.070312 6.503906 C 25.140625 8.519531 25.226562 10.898438 26.355469 12.859375 C 27.480469 14.808594 29.496094 16.078125 31.714844 16.28125 C 31.917969 18.492188 33.179688 20.511719 35.140625 21.644531 C 36.1875 22.25 37.378906 22.570312 38.585938 22.570312 C 39.601562 22.570312 40.585938 22.351562 41.492188 21.929688 C 42.492188 23.351562 43.988281 24.34375 45.6875 24.707031 C 45.632812 26.34375 45.398438 27.933594 45.003906 29.460938 Z M 45.003906 29.460938 "/>
<path style=" stroke:none;fill-rule:nonzero;fill:rgb(0%,0%,0%);fill-opacity:1;" d="M 28.371094 36.175781 C 31.800781 36.175781 34.585938 33.386719 34.585938 29.957031 C 34.585938 28.464844 34.058594 27.097656 33.179688 26.023438 C 32.039062 24.632812 30.308594 23.742188 28.371094 23.742188 C 24.945312 23.742188 22.15625 26.53125 22.15625 29.957031 C 22.15625 31.480469 22.707031 32.878906 23.621094 33.960938 C 24.761719 35.3125 26.46875 36.175781 28.371094 36.175781 Z M 28.371094 26.042969 C 30.53125 26.042969 32.285156 27.800781 32.285156 29.957031 C 32.285156 32.117188 30.53125 33.871094 28.371094 33.871094 C 26.214844 33.871094 24.457031 32.117188 24.457031 29.957031 C 24.457031 27.800781 26.214844 26.042969 28.371094 26.042969 Z M 28.371094 26.042969 "/>
</g>
</svg>
