<?xml version="1.0" encoding="UTF-8"?>
<svg xmlns="http://www.w3.org/2000/svg" xmlns:xlink="http://www.w3.org/1999/xlink" width="48px" height="48px" viewBox="0 0 48 48" version="1.1">
<g id="surface1">
<path style=" stroke:none;fill-rule:nonzero;fill:rgb(8.627451%,8.627451%,7.843137%);fill-opacity:1;" d="M 23.90625 0.65625 C 10.707031 0.65625 0 11.359375 0 24.5625 C 0 35.125 6.851562 44.085938 16.347656 47.25 C 17.542969 47.46875 17.984375 46.730469 17.984375 46.097656 C 17.984375 45.527344 17.960938 43.644531 17.949219 41.648438 C 11.300781 43.09375 9.894531 38.828125 9.894531 38.828125 C 8.808594 36.0625 7.242188 35.328125 7.242188 35.328125 C 5.070312 33.84375 7.40625 33.875 7.40625 33.875 C 9.804688 34.042969 11.070312 36.339844 11.070312 36.339844 C 13.203125 39.996094 16.664062 38.9375 18.027344 38.328125 C 18.242188 36.78125 18.859375 35.726562 19.542969 35.128906 C 14.234375 34.523438 8.652344 32.476562 8.652344 23.316406 C 8.652344 20.703125 9.585938 18.570312 11.117188 16.898438 C 10.867188 16.296875 10.050781 13.863281 11.347656 10.570312 C 11.347656 10.570312 13.355469 9.929688 17.921875 13.023438 C 19.832031 12.492188 21.875 12.226562 23.90625 12.21875 C 25.9375 12.226562 27.984375 12.492188 29.894531 13.023438 C 34.460938 9.929688 36.464844 10.570312 36.464844 10.570312 C 37.765625 13.863281 36.945312 16.296875 36.699219 16.898438 C 38.230469 18.570312 39.160156 20.703125 39.160156 23.316406 C 39.160156 32.496094 33.566406 34.519531 28.242188 35.109375 C 29.101562 35.851562 29.863281 37.308594 29.863281 39.539062 C 29.863281 42.738281 29.835938 45.3125 29.835938 46.097656 C 29.835938 46.734375 30.265625 47.480469 31.480469 47.246094 C 40.972656 44.082031 47.8125 35.121094 47.8125 24.5625 C 47.8125 11.359375 37.109375 0.65625 23.90625 0.65625 "/>
<path style=" stroke:none;fill-rule:nonzero;fill:rgb(8.627451%,8.627451%,7.843137%);fill-opacity:1;" d="M 8.953125 34.710938 C 8.902344 34.832031 8.714844 34.867188 8.542969 34.785156 C 8.371094 34.707031 8.273438 34.546875 8.328125 34.425781 C 8.382812 34.304688 8.570312 34.269531 8.742188 34.351562 C 8.914062 34.429688 9.015625 34.59375 8.953125 34.710938 M 10.128906 35.761719 C 10.015625 35.867188 9.792969 35.820312 9.640625 35.652344 C 9.484375 35.484375 9.457031 35.261719 9.570312 35.15625 C 9.6875 35.050781 9.90625 35.097656 10.0625 35.265625 C 10.21875 35.433594 10.25 35.65625 10.128906 35.761719 M 10.9375 37.105469 C 10.789062 37.207031 10.550781 37.109375 10.402344 36.898438 C 10.257812 36.6875 10.257812 36.429688 10.40625 36.328125 C 10.554688 36.226562 10.789062 36.316406 10.941406 36.527344 C 11.085938 36.746094 11.085938 37 10.9375 37.105469 M 12.300781 38.660156 C 12.171875 38.804688 11.890625 38.765625 11.6875 38.566406 C 11.476562 38.375 11.417969 38.101562 11.550781 37.957031 C 11.683594 37.8125 11.964844 37.851562 12.171875 38.046875 C 12.378906 38.242188 12.441406 38.515625 12.300781 38.660156 M 14.0625 39.183594 C 14.007812 39.371094 13.738281 39.457031 13.46875 39.378906 C 13.195312 39.296875 13.019531 39.074219 13.074219 38.886719 C 13.128906 38.699219 13.402344 38.609375 13.671875 38.695312 C 13.945312 38.777344 14.121094 38.992188 14.066406 39.183594 M 16.070312 39.40625 C 16.078125 39.605469 15.847656 39.769531 15.5625 39.769531 C 15.277344 39.777344 15.046875 39.617188 15.042969 39.425781 C 15.042969 39.226562 15.269531 39.0625 15.554688 39.058594 C 15.839844 39.050781 16.070312 39.210938 16.070312 39.40625 M 18.042969 39.332031 C 18.078125 39.523438 17.878906 39.722656 17.597656 39.773438 C 17.320312 39.824219 17.0625 39.707031 17.027344 39.515625 C 16.992188 39.316406 17.195312 39.121094 17.472656 39.070312 C 17.753906 39.019531 18.007812 39.136719 18.042969 39.332031 "/>
</g>
</svg>
