<?xml version="1.0" encoding="iso-8859-1"?>
<!-- Generator: Adobe Illustrator 19.0.0, SVG Export Plug-In . SVG Version: 6.00 Build 0)  -->
<svg version="1.1" id="Layer_1" xmlns="http://www.w3.org/2000/svg" xmlns:xlink="http://www.w3.org/1999/xlink" x="0px" y="0px"
	 viewBox="0 0 392.612 392.612" style="enable-background:new 0 0 392.612 392.612;" xml:space="preserve">
<circle style="fill:#FFFFFF;" cx="93.493" cy="299.101" r="72.275"/>
<g>
	<path style="fill:#FFC10D;" d="M93.493,249.259c-2.651,0-5.236,0.259-7.822,0.711c6.012,0,12.929,3.038,12.929,10.925
		c0,6.012-4.848,10.925-10.925,10.925H53.024c-0.388,0-0.711-0.065-1.099-0.065c-4.267,6.4-7.111,13.899-7.952,21.915h17.778
		c6.012,0,10.925,4.848,10.925,10.925c0,6.012-4.848,10.925-10.925,10.925H46.366c6.723,19.523,25.277,33.616,47.063,33.616
		c27.539,0,49.842-22.303,49.842-49.842C143.271,271.626,120.968,249.259,93.493,249.259z"/>
	<path style="fill:#FFC10D;" d="M276.442,338.665c-8.857,0-16.097,7.176-16.097,16.097c0,8.921,7.176,16.097,16.097,16.097
		s16.097-7.176,16.097-16.097C292.539,345.84,285.299,338.665,276.442,338.665z"/>
</g>
<path style="fill:#194F82;" d="M381.687,343.772h-27.216l-31.741-71.693c-1.745-3.943-5.624-6.465-9.956-6.465h-25.406V122.228
	c0-18.747-15.321-34.069-34.069-34.069H85.994V38.446c0-4.331-2.651-8.275-6.659-10.02L15.206,0.887
	C9.646-1.44,3.246,1.145,0.855,6.705C-1.473,12.2,1.113,18.6,6.673,20.992l57.6,24.695v164.719
	c-37.301,12.347-64.259,47.386-64.259,88.695c0,51.523,41.956,93.479,93.479,93.479c50.101,0,90.893-39.564,93.285-89.018h78.739
	v14.869c-15.58,4.719-26.958,19.135-26.958,36.267c0,20.881,17.002,37.883,37.883,37.883s37.883-17.002,37.883-37.883
	c0-17.067-11.378-31.612-26.958-36.267v-31.16h18.295l31.741,71.693c1.745,3.943,5.624,6.465,9.956,6.465h34.327
	c6.012,0,10.925-4.849,10.925-10.925C392.547,348.62,387.699,343.772,381.687,343.772z M85.994,109.945h167.24
	c6.723,0,12.283,5.495,12.283,12.283v19.329H85.994V109.945z M93.493,371.311c-39.887,0-72.275-32.388-72.275-72.275
	s32.388-72.21,72.275-72.21s72.275,32.388,72.275,72.275S133.38,371.311,93.493,371.311z M185.291,281.711
	c-8.21-43.248-46.222-76.089-91.798-76.089c-2.521,0-4.978,0.129-7.434,0.388v-42.731h179.523v118.432H185.291z M292.475,354.697
	c0,8.857-7.176,16.097-16.097,16.097s-16.097-7.176-16.097-16.097c0-8.921,7.176-16.097,16.097-16.097
	S292.475,345.84,292.475,354.697z"/>
<path style="fill:#56ACE0;" d="M265.517,281.711V163.343H85.994v42.731c2.457-0.259,4.978-0.388,7.434-0.388
	c45.576,0,83.588,32.84,91.798,76.089h80.291V281.711L265.517,281.711z"/>
<g>
</g>
<g>
</g>
<g>
</g>
<g>
</g>
<g>
</g>
<g>
</g>
<g>
</g>
<g>
</g>
<g>
</g>
<g>
</g>
<g>
</g>
<g>
</g>
<g>
</g>
<g>
</g>
<g>
</g>
</svg>
